<?xml version="1.0" standalone="no"?>
<!DOCTYPE svg PUBLIC "-//W3C//DTD SVG 20010904//EN"
 "http://www.w3.org/TR/2001/REC-SVG-20010904/DTD/svg10.dtd">
<svg version="1.0" xmlns="http://www.w3.org/2000/svg"
 width="300.000000pt" height="300.000000pt" viewBox="0 0 300.000000 300.000000"
 preserveAspectRatio="xMidYMid meet">
<metadata>
Created by potrace 1.10, written by Peter Selinger 2001-2011
</metadata>
<g transform="translate(0.000000,300.000000) scale(0.100000,-0.100000)"
fill="#000000" stroke="none">
<path d="M1554 2255 c-15 -20 -25 -37 -23 -39 2 -2 20 -6 40 -9 34 -5 39 -2
62 31 31 42 27 52 -18 52 -27 0 -39 -7 -61 -35z"/>
<path d="M1288 1885 l3 -295 59 0 60 0 -8 33 c-4 17 -7 88 -7 157 0 145 18
232 70 334 l33 66 -106 0 -107 0 3 -295z m151 259 c2 -2 -8 -31 -22 -66 -13
-35 -27 -76 -31 -93 -3 -16 -8 -43 -12 -60 -4 -16 -7 -91 -8 -165 -1 -130 -2
-135 -23 -138 -16 -2 -22 3 -27 25 -6 33 -5 458 1 484 3 11 17 19 37 22 29 3
76 -2 85 -9z"/>
<path d="M1590 2143 c-19 -69 -32 -185 -25 -237 14 -111 57 -221 110 -285 23
-27 33 -31 76 -31 l49 0 0 295 0 295 -100 0 -99 0 -11 -37z m165 -253 c0 -242
-1 -255 -19 -258 -38 -8 -101 97 -125 206 -13 64 -14 192 -1 247 12 52 33 67
95 63 l50 -3 0 -255z"/>
<path d="M884 1450 c-27 -11 -37 -36 -24 -60 7 -13 26 -21 60 -26 33 -4 50
-11 50 -20 0 -21 -73 -23 -96 -3 -8 6 -14 5 -17 -5 -9 -23 22 -41 70 -41 82 0
108 74 34 95 -20 5 -44 10 -53 10 -10 0 -18 5 -18 10 0 18 28 23 62 11 24 -9
33 -8 40 1 16 26 -64 46 -108 28z"/>
<path d="M2229 1431 c-35 -36 -37 -70 -5 -108 31 -36 95 -39 128 -5 33 32 30
88 -6 118 -38 33 -80 31 -117 -5z m86 -13 c36 -16 36 -74 0 -88 -41 -16 -85
10 -85 51 0 12 37 49 50 49 5 0 21 -5 35 -12z"/>
<path d="M550 1375 c0 -60 3 -75 15 -75 12 0 15 15 15 75 0 60 -3 75 -15 75
-12 0 -15 -15 -15 -75z"/>
<path d="M640 1375 c0 -60 3 -75 15 -75 12 0 15 14 15 63 l0 62 41 -62 c32
-48 47 -63 65 -63 23 0 24 3 24 75 0 66 -2 75 -18 75 -16 0 -18 -7 -14 -62 l3
-63 -42 63 c-31 47 -47 62 -65 62 -23 0 -24 -3 -24 -75z"/>
<path d="M1040 1435 c0 -10 10 -15 30 -15 30 0 30 0 30 -60 0 -47 3 -60 15
-60 12 0 15 13 15 60 0 60 0 60 30 60 20 0 30 5 30 15 0 12 -15 15 -75 15 -60
0 -75 -3 -75 -15z"/>
<path d="M1240 1375 c0 -60 3 -75 15 -75 12 0 15 15 15 75 0 60 -3 75 -15 75
-12 0 -15 -15 -15 -75z"/>
<path d="M1320 1435 c0 -10 10 -15 30 -15 30 0 30 0 30 -60 0 -47 3 -60 15
-60 12 0 15 13 15 59 0 60 0 60 32 63 17 2 33 9 36 16 3 9 -17 12 -77 12 -65
0 -81 -3 -81 -15z"/>
<path d="M1520 1393 c0 -64 5 -75 37 -92 35 -18 72 -13 98 14 21 20 25 34 25
80 0 48 -2 55 -20 55 -18 0 -20 -7 -20 -59 0 -51 -3 -59 -21 -64 -12 -3 -32
-2 -45 3 -21 8 -24 16 -24 65 0 42 -3 55 -15 55 -12 0 -15 -13 -15 -57z"/>
<path d="M1720 1435 c0 -10 10 -15 30 -15 30 0 30 0 30 -60 0 -55 2 -60 21
-60 21 0 21 3 16 60 l-7 60 35 0 c24 0 35 5 35 15 0 12 -16 15 -80 15 -64 0
-80 -3 -80 -15z"/>
<path d="M1920 1375 l0 -75 75 0 c60 0 75 3 75 15 0 12 -13 15 -60 15 -47 0
-60 3 -60 15 0 11 11 15 40 15 29 0 40 4 40 15 0 11 -11 15 -40 15 -29 0 -40
4 -40 15 0 12 13 15 55 15 42 0 55 3 55 15 0 12 -14 15 -70 15 l-70 0 0 -75z"/>
<path d="M2430 1375 c0 -60 3 -75 15 -75 10 0 15 10 15 30 0 28 2 30 40 30 29
0 40 4 40 15 0 11 -11 15 -40 15 -29 0 -40 4 -40 15 0 12 13 15 55 15 42 0 55
3 55 15 0 12 -14 15 -70 15 l-70 0 0 -75z"/>
<path d="M270 1223 c-58 -19 -88 -61 -75 -103 9 -28 61 -50 122 -51 72 -1 97
-11 101 -39 3 -14 -3 -29 -14 -37 -27 -20 -114 -16 -159 7 -21 11 -39 19 -40
17 0 -1 -7 -10 -14 -19 -33 -43 159 -79 229 -43 54 28 66 86 26 124 -18 17
-43 25 -103 32 -43 5 -84 12 -90 14 -18 6 -16 42 3 49 29 11 115 6 143 -9 26
-13 30 -13 42 1 11 14 10 18 -6 30 -37 27 -122 41 -165 27z"/>
<path d="M597 1209 c-50 -26 -77 -72 -77 -132 0 -41 5 -53 38 -88 113 -121
323 -18 273 134 -13 38 -54 81 -92 95 -21 8 -28 7 -37 -9 -16 -26 -15 -29 9
-29 35 0 79 -53 79 -95 0 -47 -13 -71 -50 -90 -68 -35 -158 -4 -174 61 -15 57
33 124 89 124 20 0 19 13 -2 33 -16 14 -21 13 -56 -4z"/>
<path d="M2563 1215 c-11 -29 12 -36 108 -33 86 3 94 5 94 23 0 18 -8 20 -98
23 -82 2 -98 0 -104 -13z"/>
<path d="M900 1200 c0 -19 7 -20 115 -20 108 0 115 1 115 20 0 19 -7 20 -115
20 -108 0 -115 -1 -115 -20z"/>
<path d="M1177 1196 c5 -23 8 -24 60 -19 l56 6 -5 -121 c-4 -122 -4 -122 19
-122 23 0 23 1 23 120 l0 120 55 0 c48 0 55 2 55 20 0 19 -7 20 -134 20 l-133
0 4 -24z"/>
<path d="M1460 1212 c0 -5 7 -28 14 -53 8 -24 27 -83 41 -131 25 -83 28 -88
54 -88 26 0 28 3 55 115 16 63 30 115 31 115 1 0 15 -52 31 -115 27 -112 29
-115 55 -115 26 0 29 5 54 88 14 48 33 107 41 131 19 58 18 61 -10 61 -21 0
-26 -9 -50 -98 -14 -54 -26 -107 -26 -117 0 -35 -10 -8 -38 101 -28 107 -29
109 -57 109 -28 0 -30 -3 -51 -85 -12 -47 -25 -98 -29 -115 -6 -26 -11 -14
-36 80 -16 61 -29 113 -29 118 0 10 -50 9 -50 -1z"/>
<path d="M1991 1206 c-14 -17 -132 -269 -127 -273 11 -11 56 20 62 42 6 24 9
25 91 25 84 0 85 0 96 -29 10 -27 52 -49 61 -32 2 3 -26 66 -63 140 -54 111
-70 135 -89 136 -12 1 -26 -3 -31 -9z m57 -93 c14 -32 28 -61 30 -65 2 -5 -24
-8 -58 -8 -34 0 -60 4 -58 8 16 41 54 122 56 122 2 0 15 -26 30 -57z"/>
<path d="M2220 1080 c0 -133 1 -140 20 -140 18 0 20 7 20 55 l0 55 64 0 64 0
33 -55 c25 -41 39 -55 56 -55 29 0 29 1 -6 57 l-29 47 29 27 c38 36 40 89 4
124 -23 24 -30 25 -140 25 l-115 0 0 -140z m224 84 c19 -18 20 -28 6 -55 -9
-17 -22 -19 -100 -19 l-90 0 0 45 0 45 84 0 c64 0 88 -4 100 -16z"/>
<path d="M900 1025 c0 -84 0 -85 25 -85 24 0 25 2 25 66 l0 66 72 -3 c68 -4
71 -3 73 19 2 21 -1 22 -97 22 l-98 0 0 -85z"/>
<path d="M2560 1090 c0 -19 7 -20 130 -20 123 0 130 1 130 20 0 19 -7 20 -130
20 -123 0 -130 -1 -130 -20z"/>
<path d="M2563 975 c-3 -9 -3 -19 0 -22 4 -3 52 -6 107 -7 97 -1 100 0 100 22
0 21 -3 22 -100 22 -82 0 -102 -3 -107 -15z"/>
<path d="M530 850 c0 -16 7 -20 30 -20 30 0 30 0 30 -60 0 -47 3 -60 15 -60
12 0 15 13 15 60 0 60 0 60 30 60 23 0 30 4 30 20 0 18 -7 20 -75 20 -68 0
-75 -2 -75 -20z"/>
<path d="M707 863 c-4 -3 -7 -39 -7 -80 l0 -73 75 0 c60 0 75 3 75 15 0 12
-13 15 -60 15 -47 0 -60 3 -60 15 0 11 11 15 40 15 33 0 40 3 40 20 0 17 -7
20 -40 20 -22 0 -40 5 -40 10 0 6 25 10 55 10 48 0 55 2 55 20 0 18 -7 20 -63
20 -35 0 -67 -3 -70 -7z"/>
<path d="M896 848 c-36 -33 -39 -85 -6 -118 27 -27 100 -28 124 -1 19 21 3 42
-17 22 -15 -15 -70 -14 -85 1 -7 7 -12 24 -12 40 0 43 56 64 89 34 11 -10 21
-12 31 -5 13 8 11 12 -10 29 -34 26 -83 25 -114 -2z"/>
<path d="M1060 790 c0 -64 3 -80 15 -80 10 0 15 10 15 33 0 31 1 32 45 32 44
0 45 -1 45 -32 0 -25 4 -33 18 -33 16 0 18 9 17 78 0 61 -4 77 -15 77 -10 0
-15 -10 -15 -27 1 -27 -1 -28 -47 -28 -47 0 -48 1 -48 30 0 20 -5 30 -15 30
-12 0 -15 -16 -15 -80z"/>
<path d="M1250 791 c0 -65 3 -81 15 -81 12 0 15 14 15 62 l0 62 43 -62 c30
-45 48 -62 65 -62 21 0 22 4 22 80 0 63 -3 80 -15 80 -10 0 -15 -16 -17 -61
l-3 -61 -40 58 c-26 37 -48 60 -63 62 -21 3 -22 1 -22 -77z"/>
<path d="M1465 845 c-54 -53 -17 -137 61 -137 29 0 44 6 61 27 48 55 12 135
-62 135 -25 0 -44 -8 -60 -25z m97 -22 c21 -18 24 -53 6 -71 -7 -7 -26 -12
-43 -12 -37 0 -55 15 -55 46 0 48 55 70 92 37z"/>
<path d="M1640 790 l0 -80 65 0 c51 0 65 3 65 15 0 11 -12 15 -50 15 l-50 0 0
65 c0 51 -3 65 -15 65 -12 0 -15 -16 -15 -80z"/>
<path d="M1822 854 c-35 -24 -44 -59 -28 -99 37 -87 185 -43 162 48 -15 60
-84 86 -134 51z m88 -34 c24 -24 25 -43 4 -64 -18 -19 -65 -21 -82 -4 -18 18
-15 65 6 77 26 16 50 13 72 -9z"/>
<path d="M2005 845 c-31 -30 -32 -73 -4 -109 17 -21 29 -26 65 -26 51 0 84 25
84 65 0 23 -4 25 -45 25 -33 0 -45 -4 -45 -15 0 -10 10 -15 31 -15 27 0 30 -2
19 -15 -16 -20 -64 -19 -84 1 -24 23 -19 51 10 71 22 14 31 15 57 5 39 -15 57
0 26 22 -35 24 -85 20 -114 -9z"/>
<path d="M2187 864 c-4 -4 -7 -40 -7 -81 0 -64 2 -73 18 -73 16 0 18 9 17 77
-1 70 -10 94 -28 77z"/>
<path d="M2250 790 l0 -80 76 0 c56 0 75 3 72 13 -3 7 -27 13 -61 15 -46 2
-57 6 -57 20 0 14 7 17 40 14 35 -4 40 -2 40 17 0 18 -6 21 -40 21 -22 0 -40
5 -40 10 0 6 25 10 55 10 48 0 55 2 55 20 0 18 -7 20 -70 20 l-70 0 0 -80z"/>
<path d="M2438 858 c-40 -33 -21 -78 32 -78 38 0 60 -9 60 -26 0 -17 -61 -19
-90 -4 -13 7 -21 7 -26 -1 -12 -20 27 -39 78 -39 39 0 50 4 63 24 28 42 -6 76
-76 76 -20 0 -29 4 -26 13 2 7 22 12 49 12 56 0 70 11 34 25 -37 14 -79 13
-98 -2z"/>
</g>
</svg>
