<?xml version="1.0" encoding="UTF-8"?>
<!DOCTYPE svg PUBLIC "-//W3C//DTD SVG 1.1//EN" "http://www.w3.org/Graphics/SVG/1.1/DTD/svg11.dtd">
<svg xmlns="http://www.w3.org/2000/svg" version="1.1" width="1600px" height="1600px" style="shape-rendering:geometricPrecision; text-rendering:geometricPrecision; image-rendering:optimizeQuality; fill-rule:evenodd; clip-rule:evenodd" xmlns:xlink="http://www.w3.org/1999/xlink">
<g><path style="opacity:1" fill="#f6f6f6" d="M -0.5,-0.5 C 532.833,-0.5 1066.17,-0.5 1599.5,-0.5C 1599.5,532.833 1599.5,1066.17 1599.5,1599.5C 1066.17,1599.5 532.833,1599.5 -0.5,1599.5C -0.5,1066.17 -0.5,532.833 -0.5,-0.5 Z"/></g>
<g><path style="opacity:1" fill="#e73231" d="M 831.5,419.5 C 826.453,417.605 821.12,416.605 815.5,416.5C 815.5,415.167 815.5,413.833 815.5,412.5C 824.423,399.863 834.423,388.03 845.5,377C 859.566,378.176 873.566,380.176 887.5,383C 882.214,389.074 877.048,395.241 872,401.5C 867.872,408.929 863.372,416.095 858.5,423C 849.165,423.551 840.165,422.385 831.5,419.5 Z"/></g>
<g><path style="opacity:1" fill="#db494c" d="M 815.5,412.5 C 815.5,413.833 815.5,415.167 815.5,416.5C 821.12,416.605 826.453,417.605 831.5,419.5C 825.47,419.044 819.47,418.377 813.5,417.5C 813.12,415.302 813.787,413.635 815.5,412.5 Z"/></g>
<g><path style="opacity:1" fill="#ebfcfd" d="M 853.5,435.5 C 850.887,434.905 850.887,434.071 853.5,433C 887.833,432.333 922.167,432.333 956.5,433C 922.142,434.16 887.809,434.993 853.5,435.5 Z"/></g>
<g><path style="opacity:1" fill="#9d9ea2" d="M 797.5,437.5 C 757.913,503.17 738.579,574.503 739.5,651.5C 739.869,683.751 742.869,715.751 748.5,747.5C 728.007,748.497 707.34,748.831 686.5,748.5C 686.5,644.5 686.5,540.5 686.5,436.5C 723.67,436.168 760.67,436.502 797.5,437.5 Z"/></g>
<g><path style="opacity:1" fill="#b6b6b8" d="M 797.5,437.5 C 760.67,436.502 723.67,436.168 686.5,436.5C 686.5,540.5 686.5,644.5 686.5,748.5C 707.34,748.831 728.007,748.497 748.5,747.5C 749.043,747.56 749.376,747.893 749.5,748.5C 728.177,749.5 706.844,749.833 685.5,749.5C 685.5,644.833 685.5,540.167 685.5,435.5C 723.173,435.167 760.839,435.5 798.5,436.5C 798.376,437.107 798.043,437.44 797.5,437.5 Z"/></g>
<g><path style="opacity:1" fill="#e62b2a" d="M 853.5,436.5 C 887.833,436.5 922.167,436.5 956.5,436.5C 956.5,540.5 956.5,644.5 956.5,748.5C 939.167,748.5 921.833,748.5 904.5,748.5C 864.677,703.746 841.677,651.412 835.5,591.5C 834.639,570.179 834.305,548.846 834.5,527.5C 835.879,521.383 836.546,515.05 836.5,508.5C 836.5,507.833 836.5,507.167 836.5,506.5C 837.875,503.007 839.041,499.34 840,495.5C 840.675,488.73 841.508,482.064 842.5,475.5C 842.565,472.572 843.232,469.905 844.5,467.5C 845.117,467.389 845.617,467.056 846,466.5C 846.61,463.173 847.11,459.839 847.5,456.5C 848.899,449.639 850.899,442.972 853.5,436.5 Z"/></g>
<g><path style="opacity:1" fill="#f9908f" d="M 853.5,436.5 C 853.5,436.167 853.5,435.833 853.5,435.5C 888.167,435.5 922.833,435.5 957.5,435.5C 957.5,540.167 957.5,644.833 957.5,749.5C 939.659,749.83 921.992,749.497 904.5,748.5C 921.833,748.5 939.167,748.5 956.5,748.5C 956.5,644.5 956.5,540.5 956.5,436.5C 922.167,436.5 887.833,436.5 853.5,436.5 Z"/></g>
<g><path style="opacity:1" fill="#cf4c4b" d="M 847.5,456.5 C 847.11,459.839 846.61,463.173 846,466.5C 845.617,467.056 845.117,467.389 844.5,467.5C 844.742,463.521 845.742,459.854 847.5,456.5 Z"/></g>
<g><path style="opacity:1" fill="#d6504a" d="M 842.5,475.5 C 841.508,482.064 840.675,488.73 840,495.5C 839.041,499.34 837.875,503.007 836.5,506.5C 837.549,495.852 839.549,485.518 842.5,475.5 Z"/></g>
<g><path style="opacity:1" fill="#d45c5a" d="M 836.5,508.5 C 836.546,515.05 835.879,521.383 834.5,527.5C 834.337,520.938 835.004,514.605 836.5,508.5 Z"/></g>
<g><path style="opacity:1" fill="#d64242" d="M 834.5,527.5 C 834.305,548.846 834.639,570.179 835.5,591.5C 834.683,589.031 834.183,586.365 834,583.5C 833.171,564.662 833.338,545.995 834.5,527.5 Z"/></g>
<g><path style="opacity:1" fill="#a2a3a6" d="M 1212.5,821.5 C 1228.81,820.657 1242.98,825.657 1255,836.5C 1268.3,854.663 1268.96,873.33 1257,892.5C 1236.89,912.179 1214.72,914.679 1190.5,900C 1185.56,897.054 1182.06,892.888 1180,887.5C 1175.76,876.553 1174.43,865.22 1176,853.5C 1181.84,835.512 1194.01,824.846 1212.5,821.5 Z"/></g>
<g><path style="opacity:1" fill="#cacccc" d="M 555.5,825.5 C 581.995,824.502 608.661,824.169 635.5,824.5C 635.821,830.026 635.488,835.36 634.5,840.5C 634.5,835.5 634.5,830.5 634.5,825.5C 608.167,825.5 581.833,825.5 555.5,825.5 Z"/></g>
<g><path style="opacity:1" fill="#c7c8c9" d="M 997.5,840.5 C 997.5,835.5 997.5,830.5 997.5,825.5C 971.5,825.5 945.5,825.5 919.5,825.5C 919.5,830.5 919.5,835.5 919.5,840.5C 918.512,835.36 918.179,830.026 918.5,824.5C 945.167,824.5 971.833,824.5 998.5,824.5C 998.821,830.026 998.488,835.36 997.5,840.5 Z"/></g>
<g><path style="opacity:1" fill="#a0a1a5" d="M 555.5,825.5 C 581.833,825.5 608.167,825.5 634.5,825.5C 634.5,830.5 634.5,835.5 634.5,840.5C 623.833,840.5 613.167,840.5 602.5,840.5C 602.5,862.5 602.5,884.5 602.5,906.5C 597.833,906.5 593.167,906.5 588.5,906.5C 588.5,884.5 588.5,862.5 588.5,840.5C 577.5,840.5 566.5,840.5 555.5,840.5C 555.5,835.5 555.5,830.5 555.5,825.5 Z"/></g>
<g><path style="opacity:1" fill="#a0a1a3" d="M 677.5,825.5 C 677.5,852.167 677.5,878.833 677.5,905.5C 672.833,905.5 668.167,905.5 663.5,905.5C 663.5,878.833 663.5,852.167 663.5,825.5C 668.167,825.5 672.833,825.5 677.5,825.5 Z"/></g>
<g><path style="opacity:1" fill="#a1a2a6" d="M 704.5,825.5 C 731.167,825.5 757.833,825.5 784.5,825.5C 784.5,830.5 784.5,835.5 784.5,840.5C 773.833,840.5 763.167,840.5 752.5,840.5C 752.5,862.5 752.5,884.5 752.5,906.5C 747.5,906.5 742.5,906.5 737.5,906.5C 737.5,884.5 737.5,862.5 737.5,840.5C 726.5,840.5 715.5,840.5 704.5,840.5C 704.5,835.5 704.5,830.5 704.5,825.5 Z"/></g>
<g><path style="opacity:1" fill="#a2a3a5" d="M 997.5,840.5 C 987.167,840.5 976.833,840.5 966.5,840.5C 966.5,862.5 966.5,884.5 966.5,906.5C 961.5,906.5 956.5,906.5 951.5,906.5C 951.5,884.5 951.5,862.5 951.5,840.5C 940.833,840.5 930.167,840.5 919.5,840.5C 919.5,835.5 919.5,830.5 919.5,825.5C 945.5,825.5 971.5,825.5 997.5,825.5C 997.5,830.5 997.5,835.5 997.5,840.5 Z"/></g>
<g><path style="opacity:1" fill="#a1a2a5" d="M 1097.5,829.5 C 1097.5,833.167 1097.5,836.833 1097.5,840.5C 1078.5,840.5 1059.5,840.5 1040.5,840.5C 1040.5,845.833 1040.5,851.167 1040.5,856.5C 1053.83,856.5 1067.17,856.5 1080.5,856.5C 1080.5,861.5 1080.5,866.5 1080.5,871.5C 1067.17,871.5 1053.83,871.5 1040.5,871.5C 1040.5,878.167 1040.5,884.833 1040.5,891.5C 1060.5,891.5 1080.5,891.5 1100.5,891.5C 1100.5,896.5 1100.5,901.5 1100.5,906.5C 1075.83,906.5 1051.17,906.5 1026.5,906.5C 1026.5,879.5 1026.5,852.5 1026.5,825.5C 1050.17,825.5 1073.83,825.5 1097.5,825.5C 1097.5,826.833 1097.5,828.167 1097.5,829.5 Z"/></g>
<g><path style="opacity:1" fill="#a0a0a4" d="M 1297.5,825.5 C 1321.5,825.5 1345.5,825.5 1369.5,825.5C 1369.5,830.5 1369.5,835.5 1369.5,840.5C 1350.5,840.5 1331.5,840.5 1312.5,840.5C 1312.5,846.167 1312.5,851.833 1312.5,857.5C 1325.5,857.5 1338.5,857.5 1351.5,857.5C 1351.5,862.167 1351.5,866.833 1351.5,871.5C 1338.5,871.5 1325.5,871.5 1312.5,871.5C 1312.5,883.167 1312.5,894.833 1312.5,906.5C 1307.5,906.5 1302.5,906.5 1297.5,906.5C 1297.5,879.5 1297.5,852.5 1297.5,825.5 Z"/></g>
<g><path style="opacity:1" fill="#a1a2a6" d="M 826.5,880.5 C 830.457,890.471 837.957,894.805 849,893.5C 855.243,893.199 861.41,892.365 867.5,891C 871.974,889.211 874.974,886.044 876.5,881.5C 877.497,863.007 877.83,844.341 877.5,825.5C 882.167,825.5 886.833,825.5 891.5,825.5C 891.5,844.833 891.5,864.167 891.5,883.5C 887.385,897.439 878.051,905.606 863.5,908C 849.023,911.409 835.356,909.409 822.5,902C 816.909,896.985 813.242,890.818 811.5,883.5C 811.5,864.167 811.5,844.833 811.5,825.5C 816.167,825.5 820.833,825.5 825.5,825.5C 825.17,844.008 825.503,862.341 826.5,880.5 Z"/></g>
<g><path style="opacity:1" fill="#a2a2a6" d="M 291.5,825.5 C 296.167,825.5 300.833,825.5 305.5,825.5C 305.5,852.167 305.5,878.833 305.5,905.5C 300.833,905.5 296.167,905.5 291.5,905.5C 291.5,878.833 291.5,852.167 291.5,825.5 Z"/></g>
<g><path style="opacity:1" fill="#c0c0c2" d="M 291.5,825.5 C 296.305,824.513 301.305,824.179 306.5,824.5C 306.5,851.833 306.5,879.167 306.5,906.5C 301.305,906.821 296.305,906.487 291.5,905.5C 296.167,905.5 300.833,905.5 305.5,905.5C 305.5,878.833 305.5,852.167 305.5,825.5C 300.833,825.5 296.167,825.5 291.5,825.5 Z"/></g>
<g><path style="opacity:1" fill="#d3d4d4" d="M 677.5,825.5 C 672.833,825.5 668.167,825.5 663.5,825.5C 663.5,852.167 663.5,878.833 663.5,905.5C 668.167,905.5 672.833,905.5 677.5,905.5C 672.695,906.487 667.695,906.821 662.5,906.5C 662.5,879.167 662.5,851.833 662.5,824.5C 667.695,824.179 672.695,824.513 677.5,825.5 Z"/></g>
<g><path style="opacity:1" fill="#c0c1c2" d="M 1097.5,829.5 C 1097.5,828.167 1097.5,826.833 1097.5,825.5C 1073.83,825.5 1050.17,825.5 1026.5,825.5C 1026.5,852.5 1026.5,879.5 1026.5,906.5C 1051.17,906.5 1075.83,906.5 1100.5,906.5C 1075.67,907.498 1050.67,907.831 1025.5,907.5C 1025.5,879.833 1025.5,852.167 1025.5,824.5C 1049.83,824.5 1074.17,824.5 1098.5,824.5C 1098.78,826.415 1098.45,828.081 1097.5,829.5 Z"/></g>
<g><path style="opacity:1" fill="#f6f6f6" d="M 1215.5,837.5 C 1239.7,837.528 1250.87,849.528 1249,873.5C 1245.54,884.624 1238.04,891.124 1226.5,893C 1212.48,895.332 1201.31,890.832 1193,879.5C 1185.07,857.024 1192.57,843.024 1215.5,837.5 Z"/></g>
<g><path style="opacity:1" fill="#d0d0d2" d="M 891.5,883.5 C 891.5,864.167 891.5,844.833 891.5,825.5C 886.833,825.5 882.167,825.5 877.5,825.5C 877.83,844.341 877.497,863.007 876.5,881.5C 876.5,862.5 876.5,843.5 876.5,824.5C 881.833,824.5 887.167,824.5 892.5,824.5C 892.83,844.34 892.497,864.007 891.5,883.5 Z"/></g>
<g><path style="opacity:1" fill="#bfc0c0" d="M 401.5,905.5 C 408.5,905.5 415.5,905.5 422.5,905.5C 422.5,878.833 422.5,852.167 422.5,825.5C 418.167,825.5 413.833,825.5 409.5,825.5C 409.83,843.674 409.497,861.674 408.5,879.5C 408.5,861.167 408.5,842.833 408.5,824.5C 413.5,824.5 418.5,824.5 423.5,824.5C 423.5,851.833 423.5,879.167 423.5,906.5C 415.981,906.825 408.648,906.492 401.5,905.5 Z"/></g>
<g><path style="opacity:1" fill="#a1a2a6" d="M 354.5,825.5 C 357.898,825.18 361.232,825.513 364.5,826.5C 378.754,847.342 393.254,868.008 408,888.5C 408.498,885.518 408.665,882.518 408.5,879.5C 409.497,861.674 409.83,843.674 409.5,825.5C 413.833,825.5 418.167,825.5 422.5,825.5C 422.5,852.167 422.5,878.833 422.5,905.5C 415.5,905.5 408.5,905.5 401.5,905.5C 387.179,884.871 372.846,864.204 358.5,843.5C 358.217,842.711 357.717,842.044 357,841.5C 356.5,862.831 356.333,884.164 356.5,905.5C 351.833,905.5 347.167,905.5 342.5,905.5C 342.5,878.833 342.5,852.167 342.5,825.5C 346.5,825.5 350.5,825.5 354.5,825.5 Z"/></g>
<g><path style="opacity:1" fill="#d2d3d4" d="M 826.5,880.5 C 825.503,862.341 825.17,844.008 825.5,825.5C 820.833,825.5 816.167,825.5 811.5,825.5C 811.5,844.833 811.5,864.167 811.5,883.5C 810.503,864.007 810.17,844.34 810.5,824.5C 815.833,824.5 821.167,824.5 826.5,824.5C 826.5,843.167 826.5,861.833 826.5,880.5 Z"/></g>
<g><path style="opacity:1" fill="#a3a4a5" d="M 481.5,822.5 C 497.209,821.678 512.209,824.512 526.5,831C 529.207,832.864 530.041,835.364 529,838.5C 526.312,841.272 523.646,843.938 521,846.5C 506.952,837.137 491.786,834.971 475.5,840C 470.274,844.251 470.274,848.585 475.5,853C 489.908,854.457 504.241,856.457 518.5,859C 535.121,866.871 538.955,879.038 530,895.5C 526.685,899.818 522.519,902.985 517.5,905C 499.151,910.228 481.151,909.228 463.5,902C 459.381,899.71 455.714,896.876 452.5,893.5C 454.453,889.059 457.287,885.393 461,882.5C 475.45,892.403 491.283,895.569 508.5,892C 517.619,888.795 519.953,883.128 515.5,875C 514.167,874.333 512.833,873.667 511.5,873C 498.125,872.074 484.792,870.74 471.5,869C 456.719,863.007 452.219,852.507 458,837.5C 463.868,829.322 471.701,824.322 481.5,822.5 Z"/></g>
<g><path style="opacity:1" fill="#c4c5c7" d="M 354.5,825.5 C 350.5,825.5 346.5,825.5 342.5,825.5C 342.5,852.167 342.5,878.833 342.5,905.5C 347.167,905.5 351.833,905.5 356.5,905.5C 356.333,884.164 356.5,862.831 357,841.5C 357.717,842.044 358.217,842.711 358.5,843.5C 357.503,864.327 357.169,885.327 357.5,906.5C 352.167,906.5 346.833,906.5 341.5,906.5C 341.5,879.167 341.5,851.833 341.5,824.5C 346.032,824.182 350.366,824.515 354.5,825.5 Z"/></g>
<g><path style="opacity:1" fill="#f29d9b" d="M 1473.5,945.5 C 1438.33,945.168 1403.33,945.502 1368.5,946.5C 1368.5,953.167 1368.5,959.833 1368.5,966.5C 1403.33,967.498 1438.33,967.832 1473.5,967.5C 1438.34,968.498 1403,968.832 1367.5,968.5C 1367.5,960.5 1367.5,952.5 1367.5,944.5C 1403,944.168 1438.34,944.502 1473.5,945.5 Z"/></g>
<g><path style="opacity:1" fill="#f02a2a" d="M 1375.5,946.5 C 1407.83,946.5 1440.17,946.5 1472.5,946.5C 1472.5,953.167 1472.5,959.833 1472.5,966.5C 1438.17,966.5 1403.83,966.5 1369.5,966.5C 1403.16,964.837 1437.16,963.837 1471.5,963.5C 1438.84,962.667 1406.17,962.167 1373.5,962C 1372.66,960.989 1372.33,959.822 1372.5,958.5C 1405.38,960.456 1438.38,961.123 1471.5,960.5C 1471.5,956.5 1471.5,952.5 1471.5,948.5C 1439.15,949.159 1407.15,948.493 1375.5,946.5 Z"/></g>
<g><path style="opacity:1" fill="#c74043" d="M 482.5,949.5 C 482.5,949.167 482.5,948.833 482.5,948.5C 521.167,948.5 559.833,948.5 598.5,948.5C 598.5,955.833 598.5,963.167 598.5,970.5C 598.167,970.5 597.833,970.5 597.5,970.5C 597.824,963.646 597.491,956.979 596.5,950.5C 558.67,949.501 520.67,949.168 482.5,949.5 Z"/></g>
<g><path style="opacity:1" fill="#c93f3d" d="M 765.5,971.5 C 746.5,971.5 727.5,971.5 708.5,971.5C 726.993,970.503 745.659,970.17 764.5,970.5C 764.5,963.5 764.5,956.5 764.5,949.5C 718.833,949.5 673.167,949.5 627.5,949.5C 627.5,956.833 627.5,964.167 627.5,971.5C 646.674,971.17 665.674,971.503 684.5,972.5C 684.167,972.5 683.833,972.5 683.5,972.5C 664.5,972.5 645.5,972.5 626.5,972.5C 626.5,964.5 626.5,956.5 626.5,948.5C 672.833,948.5 719.167,948.5 765.5,948.5C 765.5,956.167 765.5,963.833 765.5,971.5 Z"/></g>
<g><path style="opacity:1" fill="#cc5757" d="M 802.5,949.5 C 793.766,948.865 785.433,949.532 777.5,951.5C 776.596,950.791 776.263,949.791 776.5,948.5C 785.349,948.174 794.016,948.507 802.5,949.5 Z"/></g>
<g><path style="opacity:1" fill="#dc6c6d" d="M 885.5,949.5 C 879.409,949.211 873.409,949.545 867.5,950.5C 870.087,949.184 873.087,948.517 876.5,948.5C 879.686,948.502 882.686,948.835 885.5,949.5 Z"/></g>
<g><path style="opacity:1" fill="#d55e5b" d="M 985.5,951.5 C 982.402,950.179 978.902,949.512 975,949.5C 971.5,949.667 968,949.833 964.5,950C 962.068,950.743 960.401,952.243 959.5,954.5C 958.79,951.14 960.124,949.307 963.5,949C 971.159,948.5 978.826,948.334 986.5,948.5C 986.737,949.791 986.404,950.791 985.5,951.5 Z"/></g>
<g><path style="opacity:1" fill="#e52f2f" d="M 1368.5,946.5 C 1370.83,946.5 1373.17,946.5 1375.5,946.5C 1407.15,948.493 1439.15,949.159 1471.5,948.5C 1471.5,952.5 1471.5,956.5 1471.5,960.5C 1438.38,961.123 1405.38,960.456 1372.5,958.5C 1372.33,959.822 1372.66,960.989 1373.5,962C 1406.17,962.167 1438.84,962.667 1471.5,963.5C 1437.16,963.837 1403.16,964.837 1369.5,966.5C 1369.17,966.5 1368.83,966.5 1368.5,966.5C 1368.5,959.833 1368.5,953.167 1368.5,946.5 Z"/></g>
<g><path style="opacity:1" fill="#e62e2e" d="M 1322.5,962.5 C 1324.02,965.579 1324.85,968.912 1325,972.5C 1326,973.167 1327,973.833 1328,974.5C 1329,977.833 1330,981.167 1331,984.5C 1330.95,992.82 1330.78,1001.15 1330.5,1009.5C 1329.58,1014.01 1328.08,1018.35 1326,1022.5C 1319.11,1030.74 1310.61,1036.57 1300.5,1040C 1311.83,1058.33 1323.17,1076.67 1334.5,1095C 1325.17,1095.67 1315.83,1095.67 1306.5,1095C 1295.36,1077.22 1284.36,1059.39 1273.5,1041.5C 1259.36,1040.1 1245.02,1039.43 1230.5,1039.5C 1222.33,1039.5 1214.33,1039.83 1206.5,1040.5C 1205.5,1058.66 1205.17,1076.99 1205.5,1095.5C 1198.17,1095.5 1190.83,1095.5 1183.5,1095.5C 1183.5,1046.5 1183.5,997.5 1183.5,948.5C 1221.5,948.333 1259.5,948.5 1297.5,949C 1307.32,950.908 1315.66,955.408 1322.5,962.5 Z"/></g>
<g><path style="opacity:1" fill="#e72d2c" d="M 482.5,949.5 C 520.67,949.168 558.67,949.501 596.5,950.5C 596.5,956.833 596.5,963.167 596.5,969.5C 558.833,969.5 521.167,969.5 483.5,969.5C 483.737,968.209 483.404,967.209 482.5,966.5C 482.5,960.833 482.5,955.167 482.5,949.5 Z"/></g>
<g><path style="opacity:1" fill="#e73131" d="M 708.5,971.5 C 707.501,1012.33 707.168,1053.33 707.5,1094.5C 700.167,1094.5 692.833,1094.5 685.5,1094.5C 685.832,1053.66 685.499,1013 684.5,972.5C 665.674,971.503 646.674,971.17 627.5,971.5C 627.5,964.167 627.5,956.833 627.5,949.5C 673.167,949.5 718.833,949.5 764.5,949.5C 764.5,956.5 764.5,963.5 764.5,970.5C 745.659,970.17 726.993,970.503 708.5,971.5 Z"/></g>
<g><path style="opacity:1" fill="#e63130" d="M 204.5,1096.5 C 197.576,1097.89 190.576,1098.55 183.5,1098.5C 170.075,1098.6 156.742,1097.6 143.5,1095.5C 142.833,1095.5 142.167,1095.5 141.5,1095.5C 138.613,1093.92 135.613,1092.42 132.5,1091C 135.167,1090 137.833,1089 140.5,1088C 136.542,1087.41 132.876,1088.24 129.5,1090.5C 125.468,1089.48 121.468,1088.48 117.5,1087.5C 109.464,1084.8 102.797,1080.13 97.5,1073.5C 101.499,1067.67 105.666,1062.01 110,1056.5C 115.793,1059.65 121.626,1062.65 127.5,1065.5C 132.117,1068.27 137.117,1070.27 142.5,1071.5C 158.484,1076.16 174.817,1077.66 191.5,1076C 204.198,1075.22 214.698,1070.05 223,1060.5C 226.884,1049.47 223.717,1041.3 213.5,1036C 206.168,1033.62 198.835,1031.79 191.5,1030.5C 173.05,1028.82 154.383,1026.82 135.5,1024.5C 125.608,1023.84 117.108,1020.17 110,1013.5C 107.005,1010.01 105.172,1006.01 104.5,1001.5C 104.334,994.159 104.5,986.826 105,979.5C 104.912,975.328 106.912,972.994 111,972.5C 111.671,969.252 111.171,968.919 109.5,971.5C 109.167,971 108.833,970.5 108.5,970C 109.741,968.269 110.741,966.436 111.5,964.5C 111.859,962.629 112.859,961.129 114.5,960C 125.52,951.174 138.187,946.174 152.5,945C 180.726,942.313 207.393,947.313 232.5,960C 235.681,962.092 238.681,964.425 241.5,967C 237.327,973.673 231.993,979.173 225.5,983.5C 197.768,967.912 168.434,964.078 137.5,972C 125.339,979.778 124.339,988.778 134.5,999C 141.686,1001.3 149.019,1002.97 156.5,1004C 175.613,1004.93 194.613,1006.93 213.5,1010C 245.78,1018.72 256.28,1038.89 245,1070.5C 235.844,1085.8 222.344,1094.47 204.5,1096.5 Z"/></g>
<g><path style="opacity:1" fill="#d43b3e" d="M 1368.5,946.5 C 1403.33,945.502 1438.33,945.168 1473.5,945.5C 1473.5,952.833 1473.5,960.167 1473.5,967.5C 1438.33,967.832 1403.33,967.498 1368.5,966.5C 1368.83,966.5 1369.17,966.5 1369.5,966.5C 1403.83,966.5 1438.17,966.5 1472.5,966.5C 1472.5,959.833 1472.5,953.167 1472.5,946.5C 1440.17,946.5 1407.83,946.5 1375.5,946.5C 1373.17,946.5 1370.83,946.5 1368.5,946.5 Z"/></g>
<g><path style="opacity:1" fill="#d43535" d="M 596.5,950.5 C 597.491,956.979 597.824,963.646 597.5,970.5C 559.167,970.5 520.833,970.5 482.5,970.5C 482.5,969.167 482.5,967.833 482.5,966.5C 483.404,967.209 483.737,968.209 483.5,969.5C 521.167,969.5 558.833,969.5 596.5,969.5C 596.5,963.167 596.5,956.833 596.5,950.5 Z"/></g>
<g><path style="opacity:1" fill="#f59091" d="M 481.5,948.5 C 481.833,948.5 482.167,948.5 482.5,948.5C 482.5,948.833 482.5,949.167 482.5,949.5C 482.5,955.167 482.5,960.833 482.5,966.5C 482.5,967.833 482.5,969.167 482.5,970.5C 520.833,970.5 559.167,970.5 597.5,970.5C 597.833,970.5 598.167,970.5 598.5,970.5C 559.67,971.499 520.67,971.832 481.5,971.5C 481.5,963.833 481.5,956.167 481.5,948.5 Z"/></g>
<g><path style="opacity:1" fill="#d84241" d="M 111.5,964.5 C 110.741,966.436 109.741,968.269 108.5,970C 108.833,970.5 109.167,971 109.5,971.5C 111.171,968.919 111.671,969.252 111,972.5C 106.912,972.994 104.912,975.328 105,979.5C 104.5,986.826 104.334,994.159 104.5,1001.5C 101.045,989.816 102.212,978.483 108,967.5C 109.039,966.29 110.206,965.29 111.5,964.5 Z"/></g>
<g><path style="opacity:1" fill="#ffe4e7" d="M 481.5,971.5 C 520.67,971.832 559.67,971.499 598.5,970.5C 598.5,963.167 598.5,955.833 598.5,948.5C 559.833,948.5 521.167,948.5 482.5,948.5C 482.167,948.5 481.833,948.5 481.5,948.5C 520.486,946.506 559.819,945.839 599.5,946.5C 599.5,955.167 599.5,963.833 599.5,972.5C 559.996,972.832 520.663,972.499 481.5,971.5 Z"/></g>
<g><path style="opacity:1" fill="#da413e" d="M 1322.5,962.5 C 1327.22,967.935 1330.38,974.268 1332,981.5C 1332.67,989.5 1332.67,997.5 1332,1005.5C 1331.79,1007.06 1331.29,1008.39 1330.5,1009.5C 1330.78,1001.15 1330.95,992.82 1331,984.5C 1330,981.167 1329,977.833 1328,974.5C 1327,973.833 1326,973.167 1325,972.5C 1324.85,968.912 1324.02,965.579 1322.5,962.5 Z"/></g>
<g><path style="opacity:1" fill="#f7f6f6" d="M 1290.5,972.5 C 1300.55,973.384 1306.72,978.717 1309,988.5C 1311.74,1001.37 1307.24,1010.37 1295.5,1015.5C 1266.17,1015.5 1236.83,1015.5 1207.5,1015.5C 1207.5,1001.17 1207.5,986.833 1207.5,972.5C 1235.17,972.5 1262.83,972.5 1290.5,972.5 Z"/></g>
<g><path style="opacity:1" fill="#fbb6b7" d="M 683.5,972.5 C 683.833,972.5 684.167,972.5 684.5,972.5C 684.5,1013.5 684.5,1054.5 684.5,1095.5C 692.5,1095.5 700.5,1095.5 708.5,1095.5C 700.35,1096.49 692.017,1096.83 683.5,1096.5C 683.5,1055.17 683.5,1013.83 683.5,972.5 Z"/></g>
<g><path style="opacity:1" fill="#c53e3e" d="M 708.5,971.5 C 708.5,1012.83 708.5,1054.17 708.5,1095.5C 700.5,1095.5 692.5,1095.5 684.5,1095.5C 684.5,1054.5 684.5,1013.5 684.5,972.5C 685.499,1013 685.832,1053.66 685.5,1094.5C 692.833,1094.5 700.167,1094.5 707.5,1094.5C 707.168,1053.33 707.501,1012.33 708.5,971.5 Z"/></g>
<g><path style="opacity:1" fill="#ffe6e5" d="M 708.5,971.5 C 727.5,971.5 746.5,971.5 765.5,971.5C 747.007,972.497 728.341,972.83 709.5,972.5C 710.648,1010.8 710.815,1049.14 710,1087.5C 709.817,1090.36 709.317,1093.03 708.5,1095.5C 708.5,1054.17 708.5,1012.83 708.5,971.5 Z"/></g>
<g><path style="opacity:1" fill="#f39495" d="M 1290.5,972.5 C 1262.83,972.5 1235.17,972.5 1207.5,972.5C 1207.5,986.833 1207.5,1001.17 1207.5,1015.5C 1236.83,1015.5 1266.17,1015.5 1295.5,1015.5C 1266,1016.5 1236.34,1016.83 1206.5,1016.5C 1206.5,1001.5 1206.5,986.5 1206.5,971.5C 1234.67,971.169 1262.67,971.502 1290.5,972.5 Z"/></g>
<g><path style="opacity:1" fill="#e73231" d="M 351.5,1076.5 C 353.223,1077.8 355.39,1078.47 358,1078.5C 363.838,1078.06 369.672,1077.56 375.5,1077C 376.416,1076.72 377.082,1076.22 377.5,1075.5C 413.245,1064.36 427.078,1040.36 419,1003.5C 408.359,981.58 390.859,969.08 366.5,966C 370.483,958.522 375.316,951.689 381,945.5C 416.397,952.897 437.73,974.23 445,1009.5C 448.122,1061.39 423.956,1091.55 372.5,1100C 363.5,1100.67 354.5,1100.67 345.5,1100C 343.942,1099.79 342.609,1099.29 341.5,1098.5C 339.192,1097.44 336.858,1096.28 334.5,1095C 339.101,1094.47 343.601,1094.97 348,1096.5C 349.167,1096.17 350.333,1095.83 351.5,1095.5C 346.167,1094.5 340.833,1093.5 335.5,1092.5C 332.814,1093.37 330.147,1093.87 327.5,1094C 327.167,1093.67 326.833,1093.33 326.5,1093C 327.938,1092.78 329.271,1092.28 330.5,1091.5C 328.311,1090.83 326.311,1089.83 324.5,1088.5C 321.131,1090.65 318.131,1090.48 315.5,1088C 317.503,1085.36 320.169,1083.86 323.5,1083.5C 321.275,1080.87 319.108,1080.54 317,1082.5C 315.347,1082.18 314.347,1081.18 314,1079.5C 310.889,1080.96 307.723,1081.29 304.5,1080.5C 303.378,1078.96 303.711,1077.62 305.5,1076.5C 304.273,1075.41 303.44,1074.08 303,1072.5C 302.55,1075.11 301.05,1076.44 298.5,1076.5C 292.385,1070.94 287.219,1064.6 283,1057.5C 280.861,1051.58 279.027,1045.58 277.5,1039.5C 276.723,1030.19 276.39,1020.85 276.5,1011.5C 281.551,979.938 299.218,958.771 329.5,948C 333.318,946.056 337.318,945.389 341.5,946C 347.686,952.685 353.686,959.518 359.5,966.5C 335.165,967.245 316.665,977.912 304,998.5C 299.334,1013.84 299.334,1029.17 304,1044.5C 314.094,1063.77 329.927,1074.44 351.5,1076.5 Z"/></g>
<g><path style="opacity:1" fill="#f15653" d="M 482.5,1008.5 C 482.5,1008.17 482.5,1007.83 482.5,1007.5C 515.5,1007.5 548.5,1007.5 581.5,1007.5C 581.825,1015.35 581.492,1023.02 580.5,1030.5C 581.13,1022.76 580.463,1015.42 578.5,1008.5C 546.5,1008.5 514.5,1008.5 482.5,1008.5 Z"/></g>
<g><path style="opacity:1" fill="#df3234" d="M 482.5,1008.5 C 514.5,1008.5 546.5,1008.5 578.5,1008.5C 578.827,1013.54 578.494,1018.54 577.5,1023.5C 576.508,1019.22 576.174,1014.88 576.5,1010.5C 548.831,1010.33 521.165,1010.5 493.5,1011C 492.635,1036.46 492.301,1062.29 492.5,1088.5C 491.448,1088.65 490.448,1088.48 489.5,1088C 490.821,1077.39 491.488,1066.56 491.5,1055.5C 491.037,1040.68 491.037,1026.52 491.5,1013C 490.646,1011.98 489.646,1011.14 488.5,1010.5C 488.388,1013.26 487.888,1015.92 487,1018.5C 486.667,1018.83 486.333,1019.17 486,1019.5C 485.692,1018.69 485.192,1018.03 484.5,1017.5C 483.5,1043.16 483.167,1068.82 483.5,1094.5C 490.5,1094.5 497.5,1094.5 504.5,1094.5C 504.5,1094.83 504.5,1095.17 504.5,1095.5C 497.167,1095.5 489.833,1095.5 482.5,1095.5C 482.5,1066.5 482.5,1037.5 482.5,1008.5 Z"/></g>
<g><path style="opacity:1" fill="#e72e2e" d="M 578.5,1008.5 C 580.463,1015.42 581.13,1022.76 580.5,1030.5C 555.167,1030.5 529.833,1030.5 504.5,1030.5C 504.5,1051.83 504.5,1073.17 504.5,1094.5C 497.5,1094.5 490.5,1094.5 483.5,1094.5C 483.167,1068.82 483.5,1043.16 484.5,1017.5C 485.192,1018.03 485.692,1018.69 486,1019.5C 486.333,1019.17 486.667,1018.83 487,1018.5C 487.888,1015.92 488.388,1013.26 488.5,1010.5C 489.646,1011.14 490.646,1011.98 491.5,1013C 491.037,1026.52 491.037,1040.68 491.5,1055.5C 491.488,1066.56 490.821,1077.39 489.5,1088C 490.448,1088.48 491.448,1088.65 492.5,1088.5C 492.301,1062.29 492.635,1036.46 493.5,1011C 521.165,1010.5 548.831,1010.33 576.5,1010.5C 576.174,1014.88 576.508,1019.22 577.5,1023.5C 578.494,1018.54 578.827,1013.54 578.5,1008.5 Z"/></g>
<g><path style="opacity:1" fill="#f49094" d="M 482.5,1007.5 C 482.5,1007.83 482.5,1008.17 482.5,1008.5C 482.5,1037.5 482.5,1066.5 482.5,1095.5C 489.833,1095.5 497.167,1095.5 504.5,1095.5C 504.833,1095.5 505.167,1095.5 505.5,1095.5C 497.684,1096.49 489.684,1096.83 481.5,1096.5C 481.169,1066.66 481.502,1037 482.5,1007.5 Z"/></g>
<g><path style="opacity:1" fill="#d95c58" d="M 135.5,1024.5 C 154.383,1026.82 173.05,1028.82 191.5,1030.5C 177.814,1030.04 164.147,1029.21 150.5,1028C 145.268,1027.27 140.268,1026.11 135.5,1024.5 Z"/></g>
<g><path style="opacity:1" fill="#da605f" d="M 276.5,1011.5 C 276.39,1020.85 276.723,1030.19 277.5,1039.5C 275.978,1034.25 275.311,1028.75 275.5,1023C 275.501,1018.98 275.835,1015.15 276.5,1011.5 Z"/></g>
<g><path style="opacity:1" fill="#cf4443" d="M 1368.5,1007.5 C 1368.5,1013.83 1368.5,1020.17 1368.5,1026.5C 1411.49,1028.49 1454.82,1029.16 1498.5,1028.5C 1499.49,1021.69 1499.82,1014.69 1499.5,1007.5C 1500.49,1014.65 1500.82,1021.98 1500.5,1029.5C 1456.17,1029.5 1411.83,1029.5 1367.5,1029.5C 1367.18,1021.98 1367.51,1014.65 1368.5,1007.5 Z"/></g>
<g><path style="opacity:1" fill="#fa2827" d="M 1368.5,1026.5 C 1412.18,1025.84 1455.51,1026.51 1498.5,1028.5C 1454.82,1029.16 1411.49,1028.49 1368.5,1026.5 Z"/></g>
<g><path style="opacity:1" fill="#e53633" d="M 1368.5,1007.5 C 1412.17,1007.5 1455.83,1007.5 1499.5,1007.5C 1499.82,1014.69 1499.49,1021.69 1498.5,1028.5C 1455.51,1026.51 1412.18,1025.84 1368.5,1026.5C 1368.5,1020.17 1368.5,1013.83 1368.5,1007.5 Z"/></g>
<g><path style="opacity:1" fill="#e92f2e" d="M 1495.5,1008.5 C 1496.5,1008.5 1497.5,1008.5 1498.5,1008.5C 1498.5,1013.83 1498.5,1019.17 1498.5,1024.5C 1456.5,1024.5 1414.5,1024.5 1372.5,1024.5C 1372.08,1020.62 1372.58,1016.96 1374,1013.5C 1374.33,1015.83 1374.67,1018.17 1375,1020.5C 1375.48,1019.55 1375.65,1018.55 1375.5,1017.5C 1412.83,1017.5 1450.17,1017.5 1487.5,1017.5C 1487.5,1016.5 1487.5,1015.5 1487.5,1014.5C 1450.17,1014.5 1412.83,1014.5 1375.5,1014.5C 1375.5,1013.17 1375.5,1011.83 1375.5,1010.5C 1415.48,1010.38 1455.14,1010.55 1494.5,1011C 1495.25,1010.33 1495.59,1009.5 1495.5,1008.5 Z"/></g>
<g><path style="opacity:1" fill="#e63231" d="M 1139.5,1055.5 C 1140.39,1058.55 1140.56,1061.55 1140,1064.5C 1140.31,1063.69 1140.81,1063.03 1141.5,1062.5C 1142.73,1063.65 1142.73,1064.82 1141.5,1066C 1144.04,1067.1 1144.71,1068.77 1143.5,1071C 1144.45,1071.48 1145.45,1071.65 1146.5,1071.5C 1145.2,1076.97 1143.53,1082.31 1141.5,1087.5C 1140.5,1087.5 1139.5,1087.5 1138.5,1087.5C 1136.94,1085.81 1136.11,1083.15 1136,1079.5C 1135.67,1079.83 1135.33,1080.17 1135,1080.5C 1134.75,1079.38 1134.25,1078.38 1133.5,1077.5C 1133.17,1078.17 1132.83,1078.83 1132.5,1079.5C 1134.5,1082.17 1135.5,1085.17 1135.5,1088.5C 1140.83,1088.5 1146.17,1088.5 1151.5,1088.5C 1151.34,1086.8 1151.51,1085.13 1152,1083.5C 1152.04,1086.57 1152.87,1088.57 1154.5,1089.5C 1154.32,1090.55 1153.99,1091.55 1153.5,1092.5C 1155.54,1093.75 1157.2,1095.42 1158.5,1097.5C 1150.53,1098.5 1142.53,1098.83 1134.5,1098.5C 1129.72,1088.22 1124.72,1077.89 1119.5,1067.5C 1090.17,1066.5 1060.84,1066.17 1031.5,1066.5C 1026.42,1076.94 1021.75,1087.61 1017.5,1098.5C 1008.83,1099.83 1000.17,1099.83 991.5,1098.5C 1013.9,1049.23 1037.24,1000.56 1061.5,952.5C 1071.34,951.177 1081.34,951.177 1091.5,952.5C 1107.74,986.643 1123.74,1020.98 1139.5,1055.5 Z"/></g>
<g><path style="opacity:1" fill="#f7f5f4" d="M 1106.5,1039.5 C 1100.4,1041.15 1094.07,1042.15 1087.5,1042.5C 1073.17,1042.5 1058.83,1042.5 1044.5,1042.5C 1053.93,1020.08 1064.43,998.076 1076,976.5C 1086.15,997.465 1096.32,1018.46 1106.5,1039.5 Z"/></g>
<g><path style="opacity:1" fill="#f52a2a" d="M 1061.5,952.5 C 1071.19,952.168 1080.86,952.502 1090.5,953.5C 1085.67,953.833 1080.83,954.167 1076,954.5C 1070.78,954.494 1065.95,953.827 1061.5,952.5 Z"/></g>
<g><path style="opacity:1" fill="#eafcfb" d="M 506.5,1032.5 C 532.169,1032.33 557.835,1032.5 583.5,1033C 558.649,1034.49 533.649,1034.99 508.5,1034.5C 508.833,1053.84 508.5,1073.18 507.5,1092.5C 506.5,1072.51 506.167,1052.51 506.5,1032.5 Z"/></g>
<g><path style="opacity:1" fill="#e16c6b" d="M 581.5,1007.5 C 582.492,1015.32 582.826,1023.32 582.5,1031.5C 556.833,1031.5 531.167,1031.5 505.5,1031.5C 505.5,1052.83 505.5,1074.17 505.5,1095.5C 505.167,1095.5 504.833,1095.5 504.5,1095.5C 504.5,1095.17 504.5,1094.83 504.5,1094.5C 504.5,1073.17 504.5,1051.83 504.5,1030.5C 529.833,1030.5 555.167,1030.5 580.5,1030.5C 581.492,1023.02 581.825,1015.35 581.5,1007.5 Z"/></g>
<g><path style="opacity:1" fill="#dda1a3" d="M 1206.5,1040.5 C 1214.33,1039.83 1222.33,1039.5 1230.5,1039.5C 1245.02,1039.43 1259.36,1040.1 1273.5,1041.5C 1251.17,1040.78 1228.84,1040.45 1206.5,1040.5 Z"/></g>
<g><path style="opacity:1" fill="#fbacae" d="M 1106.5,1039.5 C 1107.4,1040.21 1107.74,1041.21 1107.5,1042.5C 1100.83,1042.5 1094.17,1042.5 1087.5,1042.5C 1094.07,1042.15 1100.4,1041.15 1106.5,1039.5 Z"/></g>
<g><path style="opacity:1" fill="#e53030" d="M 802.5,949.5 C 810.048,976.139 817.381,1002.81 824.5,1029.5C 825.74,1034.41 826.573,1039.41 827,1044.5C 828.419,1046.99 829.919,1049.33 831.5,1051.5C 832.752,1054.98 833.586,1058.65 834,1062.5C 834.893,1063.71 835.726,1063.71 836.5,1062.5C 840.16,1048.55 843.826,1034.55 847.5,1020.5C 849.072,1018.06 850.572,1015.39 852,1012.5C 852.548,1008.83 853.048,1005.16 853.5,1001.5C 857.389,984.184 862.055,967.184 867.5,950.5C 873.409,949.545 879.409,949.211 885.5,949.5C 889.167,949.5 892.833,949.5 896.5,949.5C 907.094,988.785 917.594,1028.12 928,1067.5C 931.324,1057.2 934.491,1046.87 937.5,1036.5C 940.886,1030.02 942.886,1023.02 943.5,1015.5C 948.343,994.917 953.676,974.583 959.5,954.5C 960.401,952.243 962.068,950.743 964.5,950C 968,949.833 971.5,949.667 975,949.5C 978.902,949.512 982.402,950.179 985.5,951.5C 972.641,995.869 959.807,1040.2 947,1084.5C 946.295,1087.48 945.129,1090.14 943.5,1092.5C 906.167,1093.17 906.167,1093.83 943.5,1094.5C 933.681,1095.49 923.681,1095.83 913.5,1095.5C 911.002,1085.19 908.502,1074.86 906,1064.5C 897.982,1036.06 889.815,1007.72 881.5,979.5C 874.787,1002.45 868.287,1025.45 862,1048.5C 857.738,1064.08 853.905,1079.75 850.5,1095.5C 840.167,1095.5 829.833,1095.5 819.5,1095.5C 806.104,1047.24 792.104,999.237 777.5,951.5C 785.433,949.532 793.766,948.865 802.5,949.5 Z"/></g>
<g><path style="opacity:1" fill="#de5754" d="M 824.5,1029.5 C 827.124,1036.64 829.458,1043.97 831.5,1051.5C 829.919,1049.33 828.419,1046.99 827,1044.5C 826.573,1039.41 825.74,1034.41 824.5,1029.5 Z"/></g>
<g><path style="opacity:1" fill="#d94b46" d="M 943.5,1015.5 C 942.886,1023.02 940.886,1030.02 937.5,1036.5C 938.554,1029.06 940.554,1022.06 943.5,1015.5 Z"/></g>
<g><path style="opacity:1" fill="#db4e4c" d="M 853.5,1001.5 C 853.048,1005.16 852.548,1008.83 852,1012.5C 850.572,1015.39 849.072,1018.06 847.5,1020.5C 849.056,1013.91 851.056,1007.58 853.5,1001.5 Z"/></g>
<g><path style="opacity:1" fill="#d77373" d="M 1206.5,1040.5 C 1206.5,1059.17 1206.5,1077.83 1206.5,1096.5C 1198.65,1096.83 1190.98,1096.49 1183.5,1095.5C 1190.83,1095.5 1198.17,1095.5 1205.5,1095.5C 1205.17,1076.99 1205.5,1058.66 1206.5,1040.5 Z"/></g>
<g><path style="opacity:1" fill="#f7d1ce" d="M 127.5,1065.5 C 132.473,1065.91 137.14,1067.24 141.5,1069.5C 142.298,1069.96 142.631,1070.62 142.5,1071.5C 137.117,1070.27 132.117,1068.27 127.5,1065.5 Z"/></g>
<g><path style="opacity:1" fill="#d03b3d" d="M 1368.5,1074.5 C 1368.5,1074.17 1368.5,1073.83 1368.5,1073.5C 1404.17,1073.5 1439.83,1073.5 1475.5,1073.5C 1475.5,1080.5 1475.5,1087.5 1475.5,1094.5C 1475.17,1094.5 1474.83,1094.5 1474.5,1094.5C 1474.5,1087.83 1474.5,1081.17 1474.5,1074.5C 1439.17,1074.5 1403.83,1074.5 1368.5,1074.5 Z"/></g>
<g><path style="opacity:1" fill="#d74d49" d="M 377.5,1075.5 C 377.082,1076.22 376.416,1076.72 375.5,1077C 369.672,1077.56 363.838,1078.06 358,1078.5C 355.39,1078.47 353.223,1077.8 351.5,1076.5C 360.195,1076.67 368.862,1076.34 377.5,1075.5 Z"/></g>
<g><path style="opacity:1" fill="#e33636" d="M 1139.5,1055.5 C 1146.4,1068.97 1153.07,1082.64 1159.5,1096.5C 1159.5,1097.5 1159.5,1098.5 1159.5,1099.5C 1154.17,1099.5 1148.83,1099.5 1143.5,1099.5C 1140.29,1099.81 1137.29,1099.48 1134.5,1098.5C 1142.53,1098.83 1150.53,1098.5 1158.5,1097.5C 1157.2,1095.42 1155.54,1093.75 1153.5,1092.5C 1153.99,1091.55 1154.32,1090.55 1154.5,1089.5C 1152.87,1088.57 1152.04,1086.57 1152,1083.5C 1151.51,1085.13 1151.34,1086.8 1151.5,1088.5C 1146.17,1088.5 1140.83,1088.5 1135.5,1088.5C 1135.5,1085.17 1134.5,1082.17 1132.5,1079.5C 1132.83,1078.83 1133.17,1078.17 1133.5,1077.5C 1134.25,1078.38 1134.75,1079.38 1135,1080.5C 1135.33,1080.17 1135.67,1079.83 1136,1079.5C 1136.11,1083.15 1136.94,1085.81 1138.5,1087.5C 1139.5,1087.5 1140.5,1087.5 1141.5,1087.5C 1143.53,1082.31 1145.2,1076.97 1146.5,1071.5C 1145.45,1071.65 1144.45,1071.48 1143.5,1071C 1144.71,1068.77 1144.04,1067.1 1141.5,1066C 1142.73,1064.82 1142.73,1063.65 1141.5,1062.5C 1140.81,1063.03 1140.31,1063.69 1140,1064.5C 1140.56,1061.55 1140.39,1058.55 1139.5,1055.5 Z"/></g>
<g><path style="opacity:1" fill="#de4343" d="M 117.5,1087.5 C 121.468,1088.48 125.468,1089.48 129.5,1090.5C 132.876,1088.24 136.542,1087.41 140.5,1088C 137.833,1089 135.167,1090 132.5,1091C 135.613,1092.42 138.613,1093.92 141.5,1095.5C 132.964,1094.21 124.964,1091.54 117.5,1087.5 Z"/></g>
<g><path style="opacity:1" fill="#e23939" d="M 341.5,1098.5 C 324.362,1096.47 310.028,1089.13 298.5,1076.5C 301.05,1076.44 302.55,1075.11 303,1072.5C 303.44,1074.08 304.273,1075.41 305.5,1076.5C 303.711,1077.62 303.378,1078.96 304.5,1080.5C 307.723,1081.29 310.889,1080.96 314,1079.5C 314.347,1081.18 315.347,1082.18 317,1082.5C 319.108,1080.54 321.275,1080.87 323.5,1083.5C 320.169,1083.86 317.503,1085.36 315.5,1088C 318.131,1090.48 321.131,1090.65 324.5,1088.5C 326.311,1089.83 328.311,1090.83 330.5,1091.5C 329.271,1092.28 327.938,1092.78 326.5,1093C 326.833,1093.33 327.167,1093.67 327.5,1094C 330.147,1093.87 332.814,1093.37 335.5,1092.5C 340.833,1093.5 346.167,1094.5 351.5,1095.5C 350.333,1095.83 349.167,1096.17 348,1096.5C 343.601,1094.97 339.101,1094.47 334.5,1095C 336.858,1096.28 339.192,1097.44 341.5,1098.5 Z"/></g>
<g><path style="opacity:1" fill="#f12829" d="M 943.5,1092.5 C 943.5,1093.17 943.5,1093.83 943.5,1094.5C 906.167,1093.83 906.167,1093.17 943.5,1092.5 Z"/></g>
<g><path style="opacity:1" fill="#e73131" d="M 1368.5,1074.5 C 1403.83,1074.5 1439.17,1074.5 1474.5,1074.5C 1474.5,1081.17 1474.5,1087.83 1474.5,1094.5C 1439.17,1094.5 1403.83,1094.5 1368.5,1094.5C 1368.5,1087.83 1368.5,1081.17 1368.5,1074.5 Z"/></g>
<g><path style="opacity:1" fill="#e66f6e" d="M 1368.5,1073.5 C 1368.5,1073.83 1368.5,1074.17 1368.5,1074.5C 1368.5,1081.17 1368.5,1087.83 1368.5,1094.5C 1403.83,1094.5 1439.17,1094.5 1474.5,1094.5C 1474.83,1094.5 1475.17,1094.5 1475.5,1094.5C 1475.5,1094.83 1475.5,1095.17 1475.5,1095.5C 1439.5,1095.5 1403.5,1095.5 1367.5,1095.5C 1367.18,1087.98 1367.51,1080.65 1368.5,1073.5 Z"/></g>
<g><path style="opacity:1" fill="#d64e4a" d="M 143.5,1095.5 C 156.742,1097.6 170.075,1098.6 183.5,1098.5C 183.5,1098.83 183.5,1099.17 183.5,1099.5C 174.494,1099.67 165.494,1099.5 156.5,1099C 151.924,1098.25 147.591,1097.08 143.5,1095.5 Z"/></g>
<g><path style="opacity:1" fill="#ebfcf9" d="M 1475.5,1095.5 C 1476.16,1093.96 1476.83,1092.29 1477.5,1090.5C 1479.21,1093.77 1478.55,1096.27 1475.5,1098C 1439.5,1098.83 1403.5,1098.67 1367.5,1097.5C 1403.66,1096.83 1439.66,1096.17 1475.5,1095.5 Z"/></g>
<g><path style="opacity:1" fill="#fed3d0" d="M 204.5,1096.5 C 204.389,1097.12 204.056,1097.62 203.5,1098C 199.75,1098.26 196.084,1098.93 192.5,1100C 189.445,1100.63 186.445,1100.47 183.5,1099.5C 183.5,1099.17 183.5,1098.83 183.5,1098.5C 190.576,1098.55 197.576,1097.89 204.5,1096.5 Z"/></g>
<g><path style="opacity:1" fill="#eb999a" d="M 1159.5,1096.5 C 1160.43,1097.57 1160.77,1098.9 1160.5,1100.5C 1154.64,1100.82 1148.98,1100.49 1143.5,1099.5C 1148.83,1099.5 1154.17,1099.5 1159.5,1099.5C 1159.5,1098.5 1159.5,1097.5 1159.5,1096.5 Z"/></g>
<g><path style="opacity:1" fill="#a3a4a5" d="M 496.5,1135.5 C 516.941,1133.47 533.774,1140.14 547,1155.5C 547.49,1156.79 547.657,1158.13 547.5,1159.5C 543.752,1160.54 540.085,1161.87 536.5,1163.5C 531.538,1160.35 526.538,1157.18 521.5,1154C 510.241,1150.3 499.241,1150.97 488.5,1156C 472.944,1170.6 472.61,1185.6 487.5,1201C 501.312,1208.55 514.979,1208.22 528.5,1200C 530.928,1198.04 533.428,1196.21 536,1194.5C 540.677,1195.91 544.51,1198.41 547.5,1202C 531.317,1220.38 511.317,1226.05 487.5,1219C 465.088,1206.78 457.255,1188.28 464,1163.5C 470.447,1148.87 481.28,1139.54 496.5,1135.5 Z"/></g>
<g><path style="opacity:1" fill="#a2a3a6" d="M 987.5,1135.5 C 1011.55,1132.11 1029.05,1141.11 1040,1162.5C 1047.35,1187.81 1039.52,1206.64 1016.5,1219C 999.706,1223.74 983.706,1221.91 968.5,1213.5C 949.125,1194.81 946.625,1174.14 961,1151.5C 968.428,1143.71 977.262,1138.37 987.5,1135.5 Z"/></g>
<g><path style="opacity:1" fill="#a0a1a4" d="M 631.5,1169.5 C 632.494,1159.35 632.828,1149.01 632.5,1138.5C 636.833,1138.5 641.167,1138.5 645.5,1138.5C 645.5,1165.5 645.5,1192.5 645.5,1219.5C 641.167,1219.5 636.833,1219.5 632.5,1219.5C 632.5,1207.83 632.5,1196.17 632.5,1184.5C 614.833,1184.5 597.167,1184.5 579.5,1184.5C 579.5,1196.17 579.5,1207.83 579.5,1219.5C 574.833,1219.5 570.167,1219.5 565.5,1219.5C 565.5,1192.5 565.5,1165.5 565.5,1138.5C 570.5,1138.5 575.5,1138.5 580.5,1138.5C 580.5,1148.83 580.5,1159.17 580.5,1169.5C 597.5,1169.5 614.5,1169.5 631.5,1169.5 Z"/></g>
<g><path style="opacity:1" fill="#a2a3a6" d="M 732.5,1201.5 C 732.783,1202.29 733.283,1202.96 734,1203.5C 734.5,1181.84 734.667,1160.17 734.5,1138.5C 739.167,1138.5 743.833,1138.5 748.5,1138.5C 748.5,1165.5 748.5,1192.5 748.5,1219.5C 741.167,1219.5 733.833,1219.5 726.5,1219.5C 726.649,1218.45 726.483,1217.45 726,1216.5C 711.173,1196.18 696.84,1175.52 683,1154.5C 682.5,1176.16 682.333,1197.83 682.5,1219.5C 677.5,1219.5 672.5,1219.5 667.5,1219.5C 667.5,1192.5 667.5,1165.5 667.5,1138.5C 674.841,1138.33 682.174,1138.5 689.5,1139C 704.214,1159.6 718.547,1180.43 732.5,1201.5 Z"/></g>
<g><path style="opacity:1" fill="#a0a1a5" d="M 875.5,1138.5 C 880.5,1138.5 885.5,1138.5 890.5,1138.5C 890.5,1160.5 890.5,1182.5 890.5,1204.5C 907.5,1204.5 924.5,1204.5 941.5,1204.5C 941.5,1209.5 941.5,1214.5 941.5,1219.5C 919.5,1219.5 897.5,1219.5 875.5,1219.5C 875.5,1192.5 875.5,1165.5 875.5,1138.5 Z"/></g>
<g><path style="opacity:1" fill="#a0a1a4" d="M 1201.5,1138.5 C 1225.5,1138.5 1249.5,1138.5 1273.5,1138.5C 1273.5,1143.5 1273.5,1148.5 1273.5,1153.5C 1254.17,1153.5 1234.83,1153.5 1215.5,1153.5C 1215.5,1159.17 1215.5,1164.83 1215.5,1170.5C 1228.83,1170.5 1242.17,1170.5 1255.5,1170.5C 1255.5,1175.5 1255.5,1180.5 1255.5,1185.5C 1242.17,1185.5 1228.83,1185.5 1215.5,1185.5C 1215.5,1191.83 1215.5,1198.17 1215.5,1204.5C 1235.17,1204.5 1254.83,1204.5 1274.5,1204.5C 1274.5,1209.5 1274.5,1214.5 1274.5,1219.5C 1250.17,1219.5 1225.83,1219.5 1201.5,1219.5C 1201.5,1192.5 1201.5,1165.5 1201.5,1138.5 Z"/></g>
<g><path style="opacity:1" fill="#a1a2a6" d="M 1164.5,1138.5 C 1169.5,1138.5 1174.5,1138.5 1179.5,1138.5C 1179.5,1165.83 1179.5,1193.17 1179.5,1220.5C 1174.5,1220.5 1169.5,1220.5 1164.5,1220.5C 1164.5,1193.17 1164.5,1165.83 1164.5,1138.5 Z"/></g>
<g><path style="opacity:1" fill="#a1a1a5" d="M 281.5,1139.5 C 307.833,1139.5 334.167,1139.5 360.5,1139.5C 360.5,1144.17 360.5,1148.83 360.5,1153.5C 349.833,1153.5 339.167,1153.5 328.5,1153.5C 328.5,1175.5 328.5,1197.5 328.5,1219.5C 323.833,1219.5 319.167,1219.5 314.5,1219.5C 314.831,1197.66 314.497,1175.99 313.5,1154.5C 302.833,1154.5 292.167,1154.5 281.5,1154.5C 281.5,1149.5 281.5,1144.5 281.5,1139.5 Z"/></g>
<g><path style="opacity:1" fill="#cdcfcf" d="M 645.5,1219.5 C 645.5,1192.5 645.5,1165.5 645.5,1138.5C 641.167,1138.5 636.833,1138.5 632.5,1138.5C 632.828,1149.01 632.494,1159.35 631.5,1169.5C 631.5,1158.83 631.5,1148.17 631.5,1137.5C 636.5,1137.5 641.5,1137.5 646.5,1137.5C 646.831,1165.01 646.498,1192.34 645.5,1219.5 Z"/></g>
<g><path style="opacity:1" fill="#a2a3a6" d="M 801.5,1135.5 C 816.23,1134.15 829.896,1137.31 842.5,1145C 859.538,1162.92 862.038,1182.76 850,1204.5C 831.956,1222.84 811.123,1226.67 787.5,1216C 771.343,1205.17 764.843,1190 768,1170.5C 770.013,1158.31 776.18,1148.81 786.5,1142C 791.6,1139.78 796.6,1137.61 801.5,1135.5 Z"/></g>
<g><path style="opacity:1" fill="#f6f6f6" d="M 802.5,1151.5 C 814.345,1149.5 825.011,1152 834.5,1159C 839.704,1164.44 842.038,1170.94 841.5,1178.5C 842.376,1190.92 837.043,1199.42 825.5,1204C 814.028,1208.04 803.028,1207.04 792.5,1201C 782.714,1191.69 779.881,1180.53 784,1167.5C 788.191,1159.8 794.357,1154.47 802.5,1151.5 Z"/></g>
<g><path style="opacity:1" fill="#f6f6f6" d="M 987.5,1151.5 C 1000.23,1149.14 1011.4,1152.14 1021,1160.5C 1030.34,1174.06 1029.51,1186.89 1018.5,1199C 1005.31,1208.18 991.64,1208.84 977.5,1201C 967.149,1190.94 964.649,1179.11 970,1165.5C 974.265,1158.72 980.098,1154.05 987.5,1151.5 Z"/></g>
<g><path style="opacity:1" fill="#a2a3a6" d="M 1315.5,1135.5 C 1328.58,1135.18 1341.25,1137.35 1353.5,1142C 1356.73,1143.2 1359.56,1145.03 1362,1147.5C 1360.89,1152.33 1358.23,1156.33 1354,1159.5C 1340.09,1151.59 1325.25,1149.43 1309.5,1153C 1302.47,1156.48 1301.8,1160.81 1307.5,1166C 1323.35,1167.7 1339.02,1170.36 1354.5,1174C 1365.53,1179.58 1369.37,1188.41 1366,1200.5C 1361.86,1213.18 1353.03,1220.01 1339.5,1221C 1321.08,1224.08 1304.08,1220.58 1288.5,1210.5C 1287.5,1209.17 1286.5,1207.83 1285.5,1206.5C 1287.43,1202.25 1290.09,1198.58 1293.5,1195.5C 1310.27,1207.55 1328.27,1209.72 1347.5,1202C 1352.42,1195.16 1351.09,1189.83 1343.5,1186C 1329.75,1185.45 1316.08,1184.11 1302.5,1182C 1286.96,1174.71 1283.46,1163.54 1292,1148.5C 1293.83,1146 1296,1143.83 1298.5,1142C 1304.16,1139.51 1309.83,1137.34 1315.5,1135.5 Z"/></g>
<g><path style="opacity:1" fill="#d6d7d9" d="M 281.5,1139.5 C 307.995,1138.5 334.661,1138.17 361.5,1138.5C 361.5,1143.83 361.5,1149.17 361.5,1154.5C 350.833,1154.5 340.167,1154.5 329.5,1154.5C 329.5,1176.5 329.5,1198.5 329.5,1220.5C 324.167,1220.5 318.833,1220.5 313.5,1220.5C 313.5,1198.5 313.5,1176.5 313.5,1154.5C 314.497,1175.99 314.831,1197.66 314.5,1219.5C 319.167,1219.5 323.833,1219.5 328.5,1219.5C 328.5,1197.5 328.5,1175.5 328.5,1153.5C 339.167,1153.5 349.833,1153.5 360.5,1153.5C 360.5,1148.83 360.5,1144.17 360.5,1139.5C 334.167,1139.5 307.833,1139.5 281.5,1139.5 Z"/></g>
<g><path style="opacity:1" fill="#a2a2a6" d="M 1092.5,1134.5 C 1106.16,1133.67 1118.83,1136.83 1130.5,1144C 1134.62,1146.75 1137.96,1150.25 1140.5,1154.5C 1136.63,1157.93 1132.3,1160.6 1127.5,1162.5C 1121.54,1157.69 1114.87,1154.19 1107.5,1152C 1089.99,1149.17 1078.15,1156 1072,1172.5C 1070.52,1193.35 1080.18,1204.68 1101,1206.5C 1111.25,1207.09 1119.58,1203.42 1126,1195.5C 1127.13,1193.65 1127.63,1191.65 1127.5,1189.5C 1117.83,1189.5 1108.17,1189.5 1098.5,1189.5C 1098.5,1184.83 1098.5,1180.17 1098.5,1175.5C 1114.5,1175.5 1130.5,1175.5 1146.5,1175.5C 1145.73,1204.99 1130.57,1220.66 1101,1222.5C 1079.8,1221.42 1065.47,1211.09 1058,1191.5C 1052.55,1168.82 1059.71,1151.66 1079.5,1140C 1083.96,1138.31 1088.3,1136.48 1092.5,1134.5 Z"/></g>
<g><path style="opacity:1" fill="#c7c7c8" d="M 632.5,1219.5 C 631.505,1208.35 631.172,1197.01 631.5,1185.5C 614.5,1185.5 597.5,1185.5 580.5,1185.5C 580.828,1197.01 580.495,1208.35 579.5,1219.5C 579.5,1207.83 579.5,1196.17 579.5,1184.5C 597.167,1184.5 614.833,1184.5 632.5,1184.5C 632.5,1196.17 632.5,1207.83 632.5,1219.5 Z"/></g>
<g><path style="opacity:1" fill="#d4d4d6" d="M 748.5,1138.5 C 743.833,1138.5 739.167,1138.5 734.5,1138.5C 734.667,1160.17 734.5,1181.84 734,1203.5C 733.283,1202.96 732.783,1202.29 732.5,1201.5C 733.497,1180.34 733.831,1159.01 733.5,1137.5C 738.695,1137.18 743.695,1137.51 748.5,1138.5 Z"/></g>
<g><path style="opacity:1" fill="#a0a0a2" d="M 376.5,1138.5 C 400.167,1138.5 423.833,1138.5 447.5,1138.5C 447.5,1143.5 447.5,1148.5 447.5,1153.5C 428.167,1153.5 408.833,1153.5 389.5,1153.5C 389.5,1159.17 389.5,1164.83 389.5,1170.5C 403.167,1170.5 416.833,1170.5 430.5,1170.5C 430.5,1175.5 430.5,1180.5 430.5,1185.5C 416.833,1185.5 403.167,1185.5 389.5,1185.5C 389.5,1191.83 389.5,1198.17 389.5,1204.5C 409.5,1204.5 429.5,1204.5 449.5,1204.5C 449.5,1209.5 449.5,1214.5 449.5,1219.5C 425.167,1219.5 400.833,1219.5 376.5,1219.5C 376.5,1192.5 376.5,1165.5 376.5,1138.5 Z"/></g>
<g><path style="opacity:1" fill="#b8b8b9" d="M 376.5,1138.5 C 376.5,1165.5 376.5,1192.5 376.5,1219.5C 400.833,1219.5 425.167,1219.5 449.5,1219.5C 449.5,1214.5 449.5,1209.5 449.5,1204.5C 450.488,1209.64 450.821,1214.97 450.5,1220.5C 425.5,1220.5 400.5,1220.5 375.5,1220.5C 375.169,1192.99 375.502,1165.66 376.5,1138.5 Z"/></g>
<g><path style="opacity:1" fill="#b8b9bb" d="M 1201.5,1138.5 C 1201.5,1165.5 1201.5,1192.5 1201.5,1219.5C 1225.83,1219.5 1250.17,1219.5 1274.5,1219.5C 1274.5,1214.5 1274.5,1209.5 1274.5,1204.5C 1275.49,1209.64 1275.82,1214.97 1275.5,1220.5C 1250.5,1220.5 1225.5,1220.5 1200.5,1220.5C 1200.17,1192.99 1200.5,1165.66 1201.5,1138.5 Z"/></g>
</svg>
